<svg width="138" height="26" fill="none" xmlns="http://www.w3.org/2000/svg"><g clip-path="url(#clip0)" fill="#000"><path d="M36.663 11.725l-2.24-7.546h-.056l.042.812c.028.345.051.718.07 1.12.018.4.028.77.028 1.106v4.508h-2.128V1.729h3.22l2.226 7.392h.056l2.296-7.392h3.206v9.996H41.17V7.16c0-.318.004-.668.014-1.05.018-.392.032-.761.042-1.106l.042-.812h-.056l-2.31 7.532h-2.24zm7.897-7.686h2.52l1.386 4.354c.047.158.084.336.112.532.037.186.065.378.084.574h.042a7.34 7.34 0 01.098-.588c.047-.187.093-.355.14-.504l1.386-4.368h2.464l-3.164 8.442c-.317.858-.751 1.507-1.302 1.946-.55.438-1.255.658-2.114.658-.243 0-.453-.014-.63-.042a4.568 4.568 0 01-.448-.07V13.11c.103.018.224.037.364.056.15.018.303.028.462.028.439 0 .775-.131 1.008-.392a2.85 2.85 0 00.546-.924l.084-.238-3.038-7.602zm21.345-2.31v6.258c0 .765-.158 1.437-.476 2.016-.308.578-.774 1.036-1.4 1.372-.616.326-1.4.49-2.352.49-1.344 0-2.37-.346-3.08-1.036-.71-.691-1.064-1.634-1.064-2.828V1.729h2.394v6.006c0 .765.15 1.31.448 1.638.308.326.76.49 1.358.49.626 0 1.078-.168 1.358-.504.29-.346.434-.892.434-1.638V1.729h2.38zm6.69 2.17c.812 0 1.466.224 1.96.672.504.438.756 1.152.756 2.142v5.012H72.96V7.37c0-.532-.088-.934-.266-1.204-.177-.271-.457-.406-.84-.406-.57 0-.956.214-1.162.644-.205.42-.308 1.026-.308 1.82v3.5h-2.366V4.039h1.792l.322.994h.112c.243-.374.57-.654.98-.84.41-.196.868-.294 1.372-.294zM82.831 9.4c0 .756-.267 1.358-.799 1.806-.522.438-1.343.658-2.463.658a9.19 9.19 0 01-1.428-.098 5.582 5.582 0 01-1.219-.35V9.513c.449.205.915.364 1.4.476a6.12 6.12 0 001.233.154c.354 0 .61-.047.77-.14.158-.094.237-.224.237-.392a.467.467 0 00-.126-.322c-.074-.094-.233-.196-.476-.308a15.28 15.28 0 00-1.05-.476 6.618 6.618 0 01-1.133-.602 2.111 2.111 0 01-.659-.728c-.14-.29-.21-.65-.21-1.078 0-.728.28-1.274.84-1.638.57-.374 1.321-.56 2.254-.56.495 0 .962.05 1.4.154a7.17 7.17 0 011.358.476l-.672 1.596a8.6 8.6 0 00-1.12-.406 3.505 3.505 0 00-.966-.154c-.54 0-.811.14-.811.42 0 .102.037.2.111.294.084.084.238.177.462.28.234.102.57.247 1.008.434.44.177.813.368 1.12.574.309.196.542.438.7.728.16.289.239.658.239 1.106zm6.031-5.502c.86 0 1.545.34 2.059 1.022.513.672.77 1.652.77 2.94 0 .877-.127 1.614-.379 2.212-.251.588-.597 1.036-1.035 1.344a2.54 2.54 0 01-1.484.448c-.551 0-.985-.098-1.303-.294a3 3 0 01-.741-.644h-.099c.028.177.052.364.07.56.02.196.029.406.029.63v2.968h-2.367V4.039H86.3l.337.98h.112c.196-.3.462-.56.797-.784.336-.224.775-.336 1.316-.336zm-.825 1.862c-.477 0-.808.158-.995.476-.186.308-.284.774-.293 1.4v.21c0 .68.093 1.204.28 1.568.186.364.532.546 1.035.546.813 0 1.219-.71 1.219-2.128 0-.72-.103-1.242-.308-1.568-.206-.336-.518-.504-.938-.504zm7.64 5.964H93.31V1.085h2.366v10.64zm5.466-7.84c.999 0 1.773.233 2.324.7.551.466.826 1.148.826 2.044v5.096h-1.638l-.462-1.036h-.056c-.327.42-.672.723-1.036.91-.364.177-.863.266-1.498.266-.681 0-1.246-.201-1.694-.602-.448-.402-.672-1.022-.672-1.862 0-.812.285-1.414.854-1.806.579-.402 1.423-.626 2.534-.672l1.316-.042v-.224c0-.374-.098-.644-.294-.812-.187-.168-.448-.252-.784-.252s-.686.056-1.05.168a9.252 9.252 0 00-1.106.392l-.714-1.568c.42-.224.896-.397 1.428-.518a7.737 7.737 0 011.722-.182zm.798 4.34l-.714.028c-.588.018-.999.126-1.232.322-.233.186-.35.443-.35.77 0 .289.084.499.252.63.168.13.383.196.644.196.392 0 .723-.117.994-.35.271-.243.406-.57.406-.98v-.616zm9.874 1.176c0 .756-.266 1.358-.798 1.806-.523.438-1.344.658-2.464.658a9.197 9.197 0 01-1.428-.098 5.595 5.595 0 01-1.218-.35V9.513a7.31 7.31 0 001.4.476c.485.102.896.154 1.232.154.355 0 .611-.047.77-.14.159-.094.238-.224.238-.392a.467.467 0 00-.126-.322c-.075-.094-.233-.196-.476-.308-.233-.122-.583-.28-1.05-.476a6.648 6.648 0 01-1.134-.602 2.112 2.112 0 01-.658-.728c-.14-.29-.21-.65-.21-1.078 0-.728.28-1.274.84-1.638.569-.374 1.321-.56 2.254-.56.495 0 .961.05 1.4.154.439.102.891.26 1.358.476l-.672 1.596a8.615 8.615 0 00-1.12-.406 3.509 3.509 0 00-.966-.154c-.541 0-.812.14-.812.42 0 .102.037.2.112.294.084.084.238.177.462.28.233.102.569.247 1.008.434.439.177.812.368 1.12.574.308.196.541.438.7.728.159.289.238.658.238 1.106zm3.918-8.316v1.862c0 .466-.014.886-.042 1.26-.028.364-.051.63-.07.798h.126c.243-.402.546-.686.91-.854a3.035 3.035 0 011.26-.252c.532 0 1.003.098 1.414.294.42.196.747.499.98.91.233.41.35.947.35 1.61v5.012h-2.366V7.37c0-1.074-.364-1.61-1.092-1.61-.56 0-.947.214-1.162.644-.205.42-.308 1.022-.308 1.806v3.514h-2.366V1.085h2.366z"/><rect x="7.529" y="3.911" width="7.089" height="7.089" rx="2"/><rect y="15" width="22.146" height="7.089" rx="2"/><path d="M33.615 23.894c-.582 0-1.053-.21-1.413-.63-.354-.42-.531-1.044-.531-1.872 0-.834.18-1.464.54-1.89.36-.426.834-.639 1.422-.639.366 0 .666.07.9.207.234.138.423.306.567.504h.054a9.53 9.53 0 01-.045-.36 3.96 3.96 0 01-.027-.432v-1.818h.954v6.84h-.747l-.162-.648h-.045c-.138.21-.324.387-.558.531-.234.138-.537.207-.91.207zm.225-.783c.468 0 .798-.129.99-.387.192-.264.288-.657.288-1.179v-.144c0-.564-.093-.996-.28-1.296-.18-.306-.515-.459-1.007-.459-.39 0-.684.16-.882.477-.198.312-.297.741-.297 1.287 0 .546.099.966.297 1.26.198.294.495.441.89.441zm5.599-4.248c.636 0 1.137.198 1.503.594.366.39.549.924.549 1.602v.522h-3.258c.012.498.14.88.387 1.143.252.264.603.396 1.053.396.312 0 .588-.027.828-.08a4.53 4.53 0 00.756-.262v.792a3.932 3.932 0 01-.738.243c-.246.054-.54.081-.882.081-.474 0-.891-.093-1.251-.279a2.023 2.023 0 01-.837-.828c-.198-.372-.297-.828-.297-1.368 0-.546.09-1.008.27-1.386.186-.378.44-.666.765-.864.33-.204.714-.306 1.152-.306zm0 .738c-.342 0-.618.111-.828.333-.204.222-.324.537-.36.945h2.286c-.006-.378-.1-.684-.28-.918-.173-.24-.446-.36-.818-.36zm4.155 4.203l-1.836-4.85h1.008l1.008 2.834c.066.186.132.396.198.63.066.228.108.417.126.567h.036c.024-.15.072-.342.144-.576.072-.234.138-.44.198-.62l1.008-2.836h1.008l-1.845 4.851h-1.053zm5.602.09c-.672 0-1.212-.198-1.62-.594-.408-.402-.612-1.032-.612-1.89 0-.6.099-1.086.297-1.458.198-.372.47-.645.819-.819.348-.18.744-.27 1.188-.27.27 0 .522.03.756.09.24.054.438.117.594.19l-.288.773a4.384 4.384 0 00-.54-.17 2.126 2.126 0 00-.531-.073c-.876 0-1.314.576-1.314 1.728 0 .552.108.972.324 1.26.216.288.534.432.954.432.27 0 .507-.03.71-.09.21-.06.403-.138.577-.234v.828a2.036 2.036 0 01-.567.225 3.315 3.315 0 01-.747.072zm3.413-6.93v1.827c0 .156-.006.31-.018.46a9.047 9.047 0 01-.036.36h.063c.156-.253.363-.439.62-.559.265-.12.55-.18.856-.18.57 0 1.005.141 1.305.423.306.282.459.732.459 1.35v3.16h-.945V20.78c0-.756-.333-1.134-1-1.134-.497 0-.84.15-1.025.45-.186.294-.28.717-.28 1.27v2.438h-.953v-6.84h.954zm6.596 1.9c.606 0 1.059.134 1.359.404.306.264.459.681.459 1.251v3.285h-.675l-.19-.675h-.035c-.21.264-.432.46-.666.585-.228.12-.546.18-.954.18-.438 0-.801-.117-1.09-.35-.287-.24-.431-.613-.431-1.117 0-.492.186-.867.558-1.125.372-.258.945-.399 1.719-.423l.828-.027v-.27c0-.354-.081-.603-.243-.747-.162-.15-.39-.225-.684-.225-.246 0-.483.036-.711.108a4.831 4.831 0 00-.657.261l-.306-.693c.228-.12.489-.219.783-.297.3-.084.612-.126.936-.126zm.873 2.61l-.648.017c-.552.024-.936.117-1.152.28-.21.155-.315.377-.315.665 0 .252.075.435.225.55.15.113.345.17.585.17.372 0 .68-.105.927-.315.252-.21.378-.525.378-.945v-.423zm3.368 2.33h-.954v-6.84h.954v6.84zm2.452 0h-.954v-6.84h.954v6.84zm3.406-4.94c.636 0 1.137.197 1.503.593.366.39.549.924.549 1.602v.522h-3.258c.012.498.14.88.387 1.143.252.264.603.396 1.053.396.312 0 .588-.027.828-.08a4.53 4.53 0 00.756-.262v.792a3.932 3.932 0 01-.738.243c-.246.054-.54.081-.882.081-.474 0-.891-.093-1.251-.279a2.023 2.023 0 01-.837-.828c-.198-.372-.297-.828-.297-1.368 0-.546.09-1.008.27-1.386.186-.378.44-.666.765-.864.33-.204.714-.306 1.152-.306zm0 .737c-.342 0-.618.111-.828.333-.204.222-.324.537-.36.945h2.286c-.006-.378-.1-.684-.28-.918-.173-.24-.446-.36-.818-.36zm5.7-.738c.563 0 .995.141 1.295.423.3.282.45.735.45 1.36v3.158h-.945V20.78c0-.756-.333-1.134-.999-1.134-.498 0-.84.147-1.026.441-.186.294-.279.717-.279 1.27v2.447h-.954v-4.85h.756l.135.647h.054a1.41 1.41 0 01.64-.558c.275-.12.566-.18.872-.18zm4.885 0c.642 0 1.137.243 1.485.73h.045l.108-.64h.774v4.914c0 .69-.186 1.212-.558 1.566-.366.354-.927.531-1.683.531-.354 0-.678-.024-.972-.072a3.652 3.652 0 01-.8-.225v-.837c.515.252 1.124.378 1.826.378.396 0 .702-.114.918-.342.216-.222.324-.537.324-.945v-.162c0-.078.003-.18.01-.306.005-.126.011-.222.017-.288h-.036a1.511 1.511 0 01-.612.558 1.991 1.991 0 01-.846.171c-.612 0-1.092-.219-1.44-.657-.342-.444-.513-1.059-.513-1.845 0-.78.171-1.395.513-1.845.348-.456.828-.684 1.44-.684zm.198.792c-.378 0-.669.15-.873.45-.198.3-.297.732-.297 1.296 0 .564.1.993.297 1.287.204.294.501.441.891.441.444 0 .768-.12.972-.36.21-.246.315-.645.315-1.197v-.18c0-.618-.105-1.062-.315-1.332-.21-.27-.54-.405-.99-.405zm5.617-.792c.636 0 1.137.198 1.503.594.366.39.55.924.55 1.602v.522h-3.259c.012.498.141.88.387 1.143.252.264.603.396 1.053.396.312 0 .588-.027.828-.08a4.53 4.53 0 00.756-.262v.792a3.932 3.932 0 01-.738.243c-.246.054-.54.081-.882.081-.474 0-.89-.093-1.25-.279a2.023 2.023 0 01-.838-.828c-.198-.372-.297-.828-.297-1.368 0-.546.09-1.008.27-1.386.186-.378.441-.666.765-.864.33-.204.714-.306 1.152-.306zm0 .738c-.342 0-.618.111-.828.333-.204.222-.324.537-.36.945h2.286c-.006-.378-.099-.684-.279-.918-.174-.24-.447-.36-.819-.36zm6.465 2.835c0 .474-.174.837-.522 1.09-.348.245-.831.368-1.45.368-.341 0-.635-.027-.881-.08a2.888 2.888 0 01-.666-.217v-.837c.21.102.456.195.738.28.288.077.567.116.837.116.36 0 .618-.057.774-.17a.534.534 0 00.243-.46.483.483 0 00-.09-.288c-.06-.09-.174-.18-.342-.27a4.837 4.837 0 00-.72-.324 7.213 7.213 0 01-.792-.369 1.516 1.516 0 01-.486-.44c-.114-.175-.171-.397-.171-.667 0-.42.168-.74.504-.963.342-.228.792-.342 1.35-.342.294 0 .57.03.828.09.264.06.519.144.765.252l-.315.73a4.865 4.865 0 00-.648-.226 2.357 2.357 0 00-.675-.099c-.288 0-.507.045-.657.135a.42.42 0 00-.225.378c0 .114.036.213.108.297.072.084.192.168.36.252.174.084.41.186.71.306.3.114.556.231.766.351.216.12.378.267.486.441.114.174.17.396.17.666zm1.002.837c0-.234.057-.399.171-.495a.684.684 0 01.441-.144.67.67 0 01.432.144c.126.096.19.261.19.495 0 .234-.064.402-.19.504a.645.645 0 01-.432.153.658.658 0 01-.44-.153c-.115-.102-.172-.27-.172-.504zm3.082-6.165c.144 0 .27.042.378.126.108.084.162.225.162.423 0 .192-.054.333-.162.423a.598.598 0 01-.378.126.625.625 0 01-.396-.126c-.102-.09-.153-.23-.153-.423 0-.198.051-.339.153-.423a.625.625 0 01.396-.126zm.468 1.845v4.851h-.954v-4.85h.954zm5.773 2.421c0 .804-.207 1.425-.621 1.863-.414.438-.972.657-1.674.657-.438 0-.828-.099-1.17-.297a2.123 2.123 0 01-.8-.855c-.193-.378-.289-.834-.289-1.368 0-.804.204-1.422.612-1.854.408-.438.966-.657 1.674-.657.444 0 .834.1 1.17.297.342.192.609.474.801.846.198.372.297.828.297 1.368zm-3.573 0c0 .546.102.972.306 1.278.21.306.54.46.99.46.45 0 .777-.154.981-.46.21-.306.315-.732.315-1.278 0-.552-.105-.975-.315-1.269-.21-.3-.54-.45-.99-.45-.45 0-.777.15-.98.45-.205.294-.307.717-.307 1.27z"/></g><defs><clipPath id="clip0"><path fill="#fff" d="M0 0h138v26H0z"/></clipPath></defs></svg>