<svg width="39" height="39" viewBox="0 0 39 39" fill="none" xmlns="http://www.w3.org/2000/svg">
<path fill-rule="evenodd" clip-rule="evenodd" d="M26.25 15C26.25 21.2133 21.2132 26.25 15 26.25C8.7868 26.25 3.75 21.2133 3.75 15C3.75 8.7868 8.7868 3.75 15 3.75C21.2132 3.75 26.25 8.7868 26.25 15ZM24.1982 26.8498C21.658 28.8243 18.4662 30 15 30C6.71572 30 0 23.2843 0 15C0 6.71573 6.71572 0 15 0C23.2842 0 30 6.71573 30 15C30 18.4663 28.8242 21.658 26.8497 24.198L38.826 36.1743L36.1742 38.8258L24.1982 26.8498Z" fill="#BDBDBD"/>
</svg>
